# xmcd CD database file
#
# Track frame offsets:
#	150
#	13577
#	24212
#	37843
#	52219
#	66978
#	80070
#	91381
#	104713
#	127800
#	140481
#	152882
#	167627
#	180748
#	195624
#	214928
#	228207
#	240955
#
# Disc length: 3380 seconds
#
# Revision: 0
# Processed by: cddbd v1.5.2PL0 Copyright (c) Steve Scherf et al.
# Submitted via: CDex 2.09
#
DISCID=ef0d3212
DTITLE=Various Artist - Spirits Of Blues Vol.3
DYEAR=1900
DGENRE=Blues
TTITLE0=Nobody Knows When You're Down And Out - Bessie Smith
TTITLE1=Trouble Blues - Charles Brown
TTITLE2=No More Woman Blues - Texas Alexander
TTITLE3=I'm Nuts About That Gal - Lonnie Johnson
TTITLE4=If You See My Roots - Memphis Minnie
TTITLE5=Jealous Hearted Man - Buddy Moss
TTITLE6=Me And The Devil Blues - Robert Johnson
TTITLE7=Rock Me Mamma - Arthur Big Boy Crudup
TTITLE8=Cummins Prison Farm - Magic Sam
TTITLE9=Warehouse Man Blues - Champion Jack Dupree
TTITLE10=Big Fat Mamma - Roy Milton
TTITLE11=Blues At Sunrise - Ivory Joe Hunter
TTITLE12=Rich Man's Blues - Dinah Washington
TTITLE13=Georgia On My Mind - Billie Holiday
TTITLE14=Guitar Lightnin' - Lightnin' Hopkins
TTITLE15=34 Blues - Charlie Patton
TTITLE16=Skidrow Blues - Jimmy Witherspoon
TTITLE17=Mr. Johnsons Swing - Lonnie Johnson
EXTD=
EXTT0=
EXTT1=
EXTT2=
EXTT3=
EXTT4=
EXTT5=
EXTT6=
EXTT7=
EXTT8=
EXTT9=
EXTT10=
EXTT11=
EXTT12=
EXTT13=
EXTT14=
EXTT15=
EXTT16=
EXTT17=
PLAYORDER=
